#!OML:ASF F:\VICON\USERDATA\INSTALL\rory3\rory3.ASF
:FULLY-SPECIFIED
:DEGREES
191
root 13.2382 18.0307 5.61001 -4.44911 1.10761 -1.09577
lowerback 11.4363 1.4096 1.79657
upperback 1.23896 2.16351 1.19921
thorax -5.09477 1.04064 -0.0959917
lowerneck -21.2257 -6.66027 -13.0067
upperneck 28.256 -8.1067 9.7261
head 14.2073 -3.62318 4.62597
rclavicle -6.94504e-015 7.95139e-016
rhumerus -33.3397 -15.5941 -77.8022
rradius 31.7341
rwrist 4.62916
rhand -14.7103 9.15006
rfingers 7.12502
rthumb 11.4442 -20.5176
lclavicle -6.94504e-015 7.95139e-016
lhumerus -36.2346 6.82393 83.169
lradius 31.3976
lwrist -8.95327
lhand -16.5715 26.9074
lfingers 7.12502
lthumb 9.64882 56.6665
rfemur -4.17661 -2.88387 27.8653
rtibia 23.653
rfoot -11.709 -1.2388
rtoes 13.0446
lfemur -14.5504 2.3648 -14.7972
ltibia 55.4667
lfoot -3.1092 -4.86486
ltoes -8.92588
192
root 13.2389 18.0157 5.69312 -4.40361 1.07092 -1.31343
lowerback 11.3667 1.4342 2.08689
upperback 1.25067 2.23245 1.24146
thorax -5.03355 1.06981 -0.223398
lowerneck -21.1744 -6.709 -13.1426
upperneck 28.1184 -8.17729 9.88499
head 14.1635 -3.64766 4.69701
rclavicle 2.77553e-014 1.23246e-014
rhumerus -33.0001 -15.3961 -77.8637
rradius 31.8899
rwrist 4.24974
rhand -14.5987 9.83144
rfingers 7.12502
rthumb 11.5518 -19.8302
lclavicle 2.77553e-014 1.23246e-014
lhumerus -36.2262 6.83521 83.2264
lradius 31.3516
lwrist -9.09647
lhand -16.6001 26.1649
lfingers 7.12502
lthumb 9.62124 55.9252
rfemur -3.97611 -2.72628 28.1433
rtibia 23.8456
rfoot -12.092 -1.45729
rtoes 12.434
lfemur -15.2192 2.32996 -14.5513
ltibia 54.6234
lfoot -3.59501 -3.80818
ltoes -8.55845
193
root 13.241 18.0031 5.77942 -4.32034 1.07037 -1.40955
lowerback 11.273 1.42769 2.23047
upperback 1.27054 2.23928 1.26224
thorax -4.95582 1.07156 -0.280347
lowerneck -21.3038 -6.77476 -13.2159
upperneck 28.079 -8.24408 9.93852
head 14.1916 -3.67343 4.71564
rclavicle 2.68111e-014 -2.38542e-015
rhumerus -32.6521 -15.2093 -77.9118
rradius 32.1226
rwrist 4.45568
rhand -14.9089 10.0934
rfingers 7.12502
rthumb 11.2526 -19.5848
lclavicle 2.68111e-014 -2.38542e-015
lhumerus -36.3183 6.81283 83.289
lradius 31.4518
lwrist -9.21806
lhand -17.1258 25.2288
lfingers 7.12502
lthumb 9.11398 55.0118
rfemur -3.86565 -2.69065 28.2536
rtibia 24.1012
rfoot -12.5254 -1.55533
rtoes 12.0096
lfemur -15.8289 2.22345 -14.48
ltibia 53.6297
lfoot -4.03176 -2.91994
ltoes -9.68307
194
root 13.2466 17.9919 5.86758 -4.28971 1.07806 -1.30441
lowerback 11.2588 1.42806 2.21766
upperback 1.26697 2.23371 1.186
thorax -4.94908 1.06844 -0.351509
lowerneck -21.4186 -6.82236 -13.1888
upperneck 28.1059 -8.32188 9.96904
head 14.2402 -3.69697 4.70807
rclavicle -3.75206e-015 -2.38542e-015
rhumerus -32.4195 -14.9748 -78.0492
rradius 32.4354
rwrist 4.38088
rhand -14.8933 9.10055
rfingers 7.12502
rthumb 11.2677 -20.5768
lclavicle -3.75206e-015 -2.38542e-015
lhumerus -36.4134 6.85797 83.2153
lradius 31.4876
lwrist -9.32342
lhand -16.976 24.8021
lfingers 7.12502
lthumb 9.25846 54.5788
rfemur -3.69463 -2.80091 28.0941
rtibia 24.3822
rfoot -12.9617 -1.48471
rtoes 11.8793
lfemur -16.2908 2.06464 -14.6628
ltibia 52.499
lfoot -4.46881 -2.06324
ltoes -9.56703
195
root 13.2507 17.9808 5.95232 -4.24111 1.01163 -1.27827
lowerback 11.2592 1.46929 2.31643
upperback 1.23467 2.29658 1.0971
thorax -4.97428 1.09612 -0.509719
lowerneck -21.449 -6.8382 -13.1806
upperneck 28.0838 -8.38441 10.092
head 14.2532 -3.70572 4.74487
rclavicle -1.17159e-014 0
rhumerus -32.2496 -14.6615 -78.2388
rradius 32.7388
rwrist 3.95145
rhand -14.5876 8.56042
rfingers 7.12502
rthumb 11.5625 -21.1006
lclavicle -1.17159e-014 0
lhumerus -36.4602 6.87575 83.1332
lradius 31.5201
lwrist -9.39548
lhand -16.5666 25.3134
lfingers 7.12502
lthumb 9.65349 55.0722
rfemur -3.53088 -2.75064 28.0501
rtibia 24.6126
rfoot -13.3306 -1.46922
rtoes 12.2397
lfemur -16.7589 1.97131 -14.736
ltibia 51.2481
lfoot -4.81562 -1.12734
ltoes -9.048
196
root 13.2501 17.9666 6.03344 -4.18707 0.991338 -1.49359
lowerback 11.2861 1.47905 2.60146
upperback 1.17307 2.34766 1.10334
thorax -5.04162 1.11417 -0.672741
lowerneck -21.4532 -6.83676 -13.191
upperneck 28.0853 -8.39599 10.1455
head 14.2603 -3.70467 4.76706
rclavicle 9.64106e-015 -6.75868e-015
rhumerus -32.1166 -14.3305 -78.3973
rradius 32.9537
rwrist 3.48132
rhand -14.3608 9.00372
rfingers 7.12502
rthumb 11.7812 -20.6449
lclavicle 9.64106e-015 -6.75868e-015
lhumerus -36.5679 6.85509 83.1005
lradius 31.5253
lwrist -9.35846
lhand -16.5505 26.0012
lfingers 7.12502
lthumb 9.66908 55.7593
rfemur -3.35895 -2.51852 28.3431
rtibia 24.7532
rfoot -13.5789 -1.70988
rtoes 12.6851
lfemur -17.2735 1.89824 -14.4855
ltibia 49.9088
lfoot -5.13203 -0.402153
ltoes -9.24371
